<svg width="16" height="16" viewBox="0 0 16 16" fill="none" xmlns="http://www.w3.org/2000/svg">
<g clip-path="url(#clip0_5501_9621)">
<path d="M10.7362 15.1662H5.26124C4.09765 15.1751 2.97801 14.7225 2.14775 13.9076C1.31748 13.0927 0.844339 11.982 0.832031 10.819V5.71948C0.835517 5.14191 0.952897 4.57069 1.17746 4.0385C1.40202 3.50631 1.72935 3.0236 2.14073 2.61798C2.55211 2.21236 3.03947 1.89179 3.57492 1.67461C4.11037 1.45742 4.6834 1.34789 5.26124 1.35228H7.61905C7.68465 1.35228 7.74961 1.36519 7.81022 1.39029C7.87082 1.41538 7.92589 1.45216 7.97228 1.49852C8.01866 1.54488 8.05546 1.59993 8.08056 1.6605C8.10567 1.72108 8.11859 1.78601 8.11859 1.85158C8.11859 1.91715 8.10567 1.98207 8.08056 2.04265C8.05546 2.10323 8.01866 2.15827 7.97228 2.20464C7.92589 2.251 7.87082 2.28778 7.81022 2.31287C7.74961 2.33796 7.68465 2.35088 7.61905 2.35088H5.26124C4.36895 2.34548 3.5105 2.69192 2.87211 3.31506C2.23371 3.9382 1.86684 4.78779 1.85108 5.67954V10.779C1.86684 11.6708 2.23371 12.5204 2.87211 13.1435C3.5105 13.7667 4.36895 14.1131 5.26124 14.1077H10.7362C11.6284 14.1131 12.4869 13.7667 13.1253 13.1435C13.7637 12.5204 14.1306 11.6708 14.1463 10.779V7.43707C14.1606 7.31203 14.2205 7.19663 14.3144 7.11285C14.4084 7.02908 14.5299 6.98278 14.6558 6.98278C14.7818 6.98278 14.9033 7.02908 14.9972 7.11285C15.0912 7.19663 15.151 7.31203 15.1654 7.43707V10.819C15.1531 11.982 14.6799 13.0927 13.8496 13.9076C13.0194 14.7225 11.8997 15.1751 10.7362 15.1662V15.1662ZM11.7818 1.85158C11.6849 1.84972 11.589 1.87112 11.5021 1.91398C11.4152 1.95684 11.3398 2.01991 11.2823 2.0979L10.8893 2.60385C11.0218 3.14189 11.3432 3.61444 11.7952 3.93532C12.2133 4.25179 12.7227 4.4246 13.2471 4.42796H13.3271L13.72 3.922C13.7691 3.85827 13.8049 3.78542 13.8255 3.7077C13.8461 3.62998 13.851 3.54894 13.8399 3.46931C13.8302 3.38965 13.8038 3.31292 13.7625 3.24411C13.7212 3.1753 13.6659 3.11593 13.6002 3.06987L12.1548 1.97807C12.0481 1.89558 11.9168 1.85106 11.7818 1.85158M11.7818 0.85298C12.137 0.852975 12.4826 0.967365 12.7676 1.17919L14.2262 2.25767C14.3978 2.38312 14.5424 2.54163 14.6517 2.72386C14.7609 2.90609 14.8326 3.10834 14.8624 3.31868C14.8922 3.52903 14.8795 3.74321 14.8252 3.94859C14.7708 4.15397 14.6759 4.34639 14.5459 4.5145L14.1064 5.08703C14.0417 5.1724 13.9607 5.24404 13.8681 5.29776C13.7755 5.35149 13.6731 5.38622 13.5669 5.39993H13.2471C12.5035 5.40339 11.778 5.17023 11.1757 4.7342C10.4872 4.2388 10.0114 3.50165 9.84365 2.67043C9.82783 2.56494 9.83385 2.45733 9.86135 2.35426C9.88885 2.2512 9.93723 2.15488 10.0035 2.07127L10.4431 1.49874C10.5982 1.29204 10.7993 1.12427 11.0305 1.00872C11.2617 0.893165 11.5167 0.833008 11.7752 0.833008L11.7818 0.85298ZM8.74467 5.37996L7.25273 7.34386C7.18735 7.42536 7.14998 7.52574 7.14616 7.63013V9.73384C7.14295 9.75972 7.14613 9.78599 7.15542 9.81036C7.16471 9.83473 7.17982 9.85646 7.19944 9.87365C7.24015 9.91454 7.29495 9.93835 7.35263 9.94022H7.41258L9.45068 9.34106C9.55121 9.30795 9.63942 9.24531 9.70378 9.16131L11.1957 7.23069C10.7217 7.03992 10.2741 6.78934 9.86363 6.48507C9.45131 6.17816 9.08173 5.81772 8.76465 5.41324M8.79795 3.97526C8.87355 3.97349 8.94811 3.99319 9.01295 4.03207C9.0778 4.07096 9.13027 4.12744 9.16428 4.19495C9.49852 4.78009 9.95242 5.28822 10.4964 5.68619C11.0377 6.09027 11.6604 6.37194 12.3213 6.5117C12.3929 6.52274 12.4603 6.5527 12.5164 6.59849C12.5725 6.64428 12.6153 6.70423 12.6404 6.77213C12.6656 6.84003 12.6721 6.9134 12.6593 6.98467C12.6465 7.05593 12.6149 7.12248 12.5678 7.17743L10.5696 9.7871C10.3741 10.0425 10.1005 10.2271 9.79036 10.313L7.73228 10.9122C7.6199 10.9461 7.50331 10.964 7.38593 10.9654C7.22482 10.9681 7.0648 10.9385 6.91534 10.8783C6.76588 10.8181 6.63001 10.7286 6.51575 10.615C6.4015 10.5014 6.31119 10.3661 6.25016 10.217C6.18912 10.068 6.15861 9.90821 6.16041 9.74716V7.64344C6.16566 7.32416 6.27564 7.01543 6.47345 6.76468L8.47159 4.15501C8.51187 4.10547 8.56262 4.06546 8.6202 4.03784C8.67777 4.01021 8.74075 3.99567 8.80462 3.99523L8.79795 3.97526Z" fill="#1B84FF"/>
</g>
<defs>
<clipPath id="clip0_5501_9621">
<rect width="16" height="16" fill="white"/>
</clipPath>
</defs>
</svg>
