<svg width="25" height="40" viewBox="0 0 25 40" fill="none" xmlns="http://www.w3.org/2000/svg">
<path fill-rule="evenodd" clip-rule="evenodd" d="M3.22331 3.19568L0 6.39145L0.00101132 21.7545C0.00185402 34.3037 0.0225844 37.194 0.114523 37.535C0.459101 38.813 1.38632 39.6685 2.69326 39.914C3.30329 40.0287 20.8821 40.0287 21.4921 39.914C22.5758 39.7105 23.4062 39.0765 23.8758 38.0945L24.1433 37.535L24.1653 20.2152C24.1899 0.951116 24.2299 2.31796 23.615 1.42555C23.2576 0.906945 22.6358 0.407716 22.0787 0.192043C21.7283 0.0563605 21.1176 0.043502 14.073 0.0226277L6.44663 0L3.22331 3.19568ZM13.2124 18.8175C13.4389 19.0417 13.4413 19.056 13.4684 20.3572C13.5038 22.0557 13.463 22.3094 13.0885 22.7202C12.5467 23.3145 11.8005 23.3601 11.2138 22.8349C10.754 22.4233 10.6854 22.0926 10.7174 20.4425C10.7432 19.1135 10.7531 19.0443 10.9444 18.8426C11.1968 18.5768 11.3323 18.5485 12.2433 18.572C12.9233 18.5896 13.0025 18.6097 13.2124 18.8175ZM8.80525 23.6691C12.3604 24.8175 11.8594 24.8224 15.6169 23.6019C18.483 22.671 18.6967 22.6296 18.9886 22.9492C19.1467 23.1223 19.548 24.3398 19.5495 24.6509C19.5517 25.1252 19.3144 25.2472 16.8539 26.0371C14.8899 26.6676 14.5326 26.8069 14.5109 26.9507C14.494 27.0625 14.9752 27.7897 15.9224 29.0834C17.421 31.1305 17.512 31.3122 17.2348 31.7043C17.1662 31.8013 16.8487 32.0726 16.5293 32.3074C15.9602 32.7253 15.6565 32.8181 15.3003 32.6827C15.2262 32.6544 14.5366 31.773 13.768 30.7237C12.9994 29.6744 12.3179 28.7727 12.2537 28.7199C12.1895 28.6671 12.0841 28.644 12.0196 28.6686C11.9549 28.6931 11.2537 29.5948 10.4612 30.6722C9.66876 31.7497 8.95963 32.6544 8.88531 32.6826C8.46463 32.8425 7.86514 32.5704 7.14708 31.8936C6.81101 31.5768 6.74031 31.2949 6.91567 30.9701C6.96514 30.8787 7.61199 29.9763 8.35323 28.9648C9.25256 27.7376 9.69228 27.0684 9.67492 26.9534C9.65267 26.8061 9.31213 26.673 7.33146 26.0371C4.86531 25.2454 4.63483 25.1264 4.63483 24.6447C4.63483 24.4497 4.87517 23.655 5.09941 23.1084C5.18419 22.9017 5.56239 22.7083 5.81461 22.7425C5.93048 22.7582 7.27626 23.1752 8.80525 23.6691Z" fill="#005DA6"/>
</svg>
